/* XPM */
static char * D:\workspace\github\Flashpaychain\share\pixmaps\Flashpaychain16_xpm[] = {
"16 16 47 1",
" 	c None",
".	c #3CB054",
"+	c #40B257",
"@	c #42B359",
"#	c #27A842",
"$	c #36AD4E",
"%	c #3DB054",
"&	c #66C178",
"*	c #FFFFFF",
"=	c #D6EEDB",
"-	c #89CF98",
";	c #32AC4C",
">	c #3DB055",
",	c #64C076",
"'	c #EEF8F0",
")	c #DEF2E3",
"!	c #FAFDFA",
"~	c #59BC6E",
"{	c #DAF0DE",
"]	c #A1D9AD",
"^	c #4EB763",
"/	c #FEFFFE",
"(	c #CAE9D0",
"_	c #A6DBB1",
":	c #C2E6CA",
"<	c #38AF51",
"[	c #61BF75",
"}	c #29A844",
"|	c #32AC4B",
"1	c #A0D8AB",
"2	c #B9E3C1",
"3	c #2BA945",
"4	c #3BB053",
"5	c #A9DCB4",
"6	c #B1DFBA",
"7	c #93D3A0",
"8	c #BAE3C3",
"9	c #39AF52",
"0	c #B2E0BC",
"a	c #7FCB8F",
"b	c #ADDDB7",
"c	c #4AB661",
"d	c #3AAF52",
"e	c #36AE4F",
"f	c #5BBC6F",
"g	c #35AD4E",
"h	c #3DB155",
"      ....      ",
"    ........    ",
"  ............  ",
"  ..+@#$%.....  ",
" ...&**=-;>.... ",
" ...,*')*!~>... ",
"....,**{]**^....",
"....,**/(_*:<...",
"....[****~**}...",
"....|****12*3...",
" ...45***6789.. ",
" ....|0**abc... ",
"  ....defgdh..  ",
"  ............  ",
"    ........    ",
"      ....      "};
