/* XPM */
static char * D:\workspace\github\Flashpaychain\share\pixmaps\Flashpaychain32_xpm[] = {
"32 32 81 1",
" 	c None",
".	c #3CB054",
"+	c #55BA6A",
"@	c #65C178",
"#	c #4FB865",
"$	c #2FAB49",
"%	c #2FAB48",
"&	c #39AF51",
"*	c #3DB055",
"=	c #99D6A5",
"-	c #FFFFFF",
";	c #F0F9F3",
">	c #BAE3C2",
",	c #83CD93",
"'	c #37AE4F",
")	c #39AF52",
"!	c #97D5A3",
"~	c #BAE3C3",
"{	c #4EB864",
"]	c #F4FBF5",
"^	c #DEF2E2",
"/	c #AFDFB9",
"(	c #33AC4C",
"_	c #EAF6EC",
":	c #8CD19A",
"<	c #F4FBF6",
"[	c #E8F6EB",
"}	c #3EB156",
"|	c #62BF75",
"1	c #BEE5C6",
"2	c #FEFFFF",
"3	c #ECF7EE",
"4	c #5ABD6F",
"5	c #BCE4C4",
"6	c #38AE50",
"7	c #3FB156",
"8	c #A7DBB2",
"9	c #D8EFDD",
"0	c #23A63E",
"a	c #DFF2E3",
"b	c #A8DBB3",
"c	c #3BB053",
"d	c #6EC480",
"e	c #56BB6B",
"f	c #34AD4D",
"g	c #89CF98",
"h	c #C8E9CF",
"i	c #2EAA48",
"j	c #D5EEDA",
"k	c #2BA945",
"l	c #5DBD71",
"m	c #89CF97",
"n	c #F9FDFA",
"o	c #2DAA47",
"p	c #2CAA46",
"q	c #57BB6B",
"r	c #57BB6C",
"s	c #D4EEDA",
"t	c #36AD4E",
"u	c #8BD099",
"v	c #64C077",
"w	c #35AD4E",
"x	c #99D5A5",
"y	c #30AB4A",
"z	c #E0F3E4",
"A	c #50B865",
"B	c #2CA946",
"C	c #42B25A",
"D	c #E7F5EA",
"E	c #2BAA45",
"F	c #B0DFBA",
"G	c #3AAF52",
"H	c #32AC4B",
"I	c #A0D9AC",
"J	c #A0D8AC",
"K	c #56BA6B",
"L	c #67C179",
"M	c #83CD92",
"N	c #83CC92",
"O	c #3AAF53",
"P	c #54BA69",
"              ....              ",
"          ............          ",
"        ................        ",
"       ..................       ",
"     ......................     ",
"    ........................    ",
"    ........................    ",
"   ......+@#$%&*.............   ",
"  ......*=---;>,')............  ",
"  ......*!-------~{)..........  ",
" .......*!--]^-----/(.......... ",
" .......*!---_:<----[}......... ",
" .......*!-----|1---23'........ ",
" .......*!------4!----56....... ",
"........*!-------78----#........",
"........*!-------90a---bc.......",
"........*!--------de---af.......",
"........*g--------hij--2k.......",
" ........l---------im--no...... ",
" ........pn--------qr--st...... ",
" .........u--------vw--x....... ",
" .........yz2------AB--C....... ",
"  ..........D------Ew-FG......  ",
"  ..........HI----JcKDf.......  ",
"   ..........c$LMNO.P(.......   ",
"    ........................    ",
"    ........................    ",
"     ......................     ",
"       ..................       ",
"        ................        ",
"          ............          ",
"              ....              "};
