/* XPM */
static char * D:\workspace\github\Flashpaychain\share\pixmaps\Flashpaychain64_xpm[] = {
"64 64 145 2",
"  	c None",
". 	c #3CB054",
"+ 	c #3BAF53",
"@ 	c #35AD4E",
"# 	c #B1DFBA",
"$ 	c #A1D9AD",
"% 	c #92D39F",
"& 	c #7FCC8F",
"* 	c #67C17A",
"= 	c #49B55F",
"- 	c #30AB4A",
"; 	c #31AC4A",
"> 	c #3AAF52",
", 	c #30AB49",
"' 	c #FFFFFF",
") 	c #E6F5EA",
"! 	c #B5E1BF",
"~ 	c #8AD099",
"{ 	c #52B967",
"] 	c #2EAA48",
"^ 	c #FAFDFB",
"/ 	c #B3E0BC",
"( 	c #6CC37D",
"_ 	c #2FAB48",
": 	c #3BB054",
"< 	c #FCFEFC",
"[ 	c #9FD8AB",
"} 	c #41B258",
"| 	c #39AF51",
"1 	c #B3E0BD",
"2 	c #40B258",
"3 	c #3BB053",
"4 	c #FAFDFA",
"5 	c #F0F9F2",
"6 	c #97D5A4",
"7 	c #32AC4B",
"8 	c #E6F5E9",
"9 	c #A2D9AD",
"0 	c #E8F6EB",
"a 	c #4BB661",
"b 	c #9CD7A7",
"c 	c #71C683",
"d 	c #F6FBF7",
"e 	c #6CC47E",
"f 	c #39AF52",
"g 	c #E1F3E5",
"h 	c #34AD4D",
"i 	c #9ED8AA",
"j 	c #7FCB8F",
"k 	c #38AF51",
"l 	c #4AB660",
"m 	c #51B866",
"n 	c #EBF7EE",
"o 	c #78C888",
"p 	c #53B968",
"q 	c #C0E6C8",
"r 	c #59BB6D",
"s 	c #3DB055",
"t 	c #4CB763",
"u 	c #33AC4D",
"v 	c #99D6A6",
"w 	c #37AE4F",
"x 	c #F8FCF8",
"y 	c #3FB257",
"z 	c #8CD09A",
"A 	c #ACDDB6",
"B 	c #E2F3E6",
"C 	c #32AC4C",
"D 	c #36AE4F",
"E 	c #9BD7A7",
"F 	c #47B45D",
"G 	c #A5DAB0",
"H 	c #33AC4C",
"I 	c #C5E7CC",
"J 	c #ACDEB6",
"K 	c #58BC6D",
"L 	c #F2FAF4",
"M 	c #E3F3E7",
"N 	c #30AC4A",
"O 	c #61BF75",
"P 	c #69C27C",
"Q 	c #79C989",
"R 	c #C3E7CB",
"S 	c #9DD7A9",
"T 	c #2EAB48",
"U 	c #4CB762",
"V 	c #C2E7CA",
"W 	c #38AE50",
"X 	c #F5FBF6",
"Y 	c #60BE74",
"Z 	c #C8E9CF",
"` 	c #DFF2E3",
" .	c #35AD4D",
"..	c #D3EDD8",
"+.	c #AFDFB9",
"@.	c #3AAF53",
"#.	c #72C584",
"$.	c #A6DBB1",
"%.	c #F7FCF8",
"&.	c #31AB4A",
"*.	c #E7F5E9",
"=.	c #70C582",
"-.	c #48B55E",
";.	c #C7E8CE",
">.	c #D2EDD8",
",.	c #73C784",
"'.	c #96D5A3",
").	c #B0DFBA",
"!.	c #8CD19A",
"~.	c #88CF97",
"{.	c #98D5A5",
"].	c #50B866",
"^.	c #4CB662",
"/.	c #96D4A3",
"(.	c #3DB155",
"_.	c #E8F6EA",
":.	c #84CD93",
"<.	c #36AD4F",
"[.	c #8FD29D",
"}.	c #62BF75",
"|.	c #6EC580",
"1.	c #33AD4C",
"2.	c #97D4A3",
"3.	c #66C179",
"4.	c #C6E8CE",
"5.	c #EBF7ED",
"6.	c #46B45C",
"7.	c #D8EFDD",
"8.	c #6CC37E",
"9.	c #6EC480",
"0.	c #FEFFFE",
"a.	c #48B55F",
"b.	c #D9F0DE",
"c.	c #DDF1E2",
"d.	c #91D29E",
"e.	c #F9FDFA",
"f.	c #4EB764",
"g.	c #89CF97",
"h.	c #CEEBD5",
"i.	c #DDF1E1",
"j.	c #C6E7CD",
"k.	c #54BA69",
"l.	c #95D4A2",
"m.	c #3EB055",
"n.	c #36AE4E",
"                                                                                                                                ",
"                                                  . . . . . . . . . . . . . .                                                   ",
"                                            . . . . . . . . . . . . . . . . . . . .                                             ",
"                                      . . . . . . . . . . . . . . . . . . . . . . . . . .                                       ",
"                                  . . . . . . . . . . . . . . . . . . . . . . . . . . . . . .                                   ",
"                              . . . . . . . . . . . . . . . . . . . . . . . . . . . . . . . . . .                               ",
"                            . . . . . . . . . . . . . . . . . . . . . . . . . . . . . . . . . . . .                             ",
"                          . . . . . . . . . . . . . . . . . . . . . . . . . . . . . . . . . . . . . .                           ",
"                      . . . . . . . . . . . . . . . . . . . . . . . . . . . . . . . . . . . . . . . . . .                       ",
"                    . . . . . . . . . . . . . . . . . . . . . . . . . . . . . . . . . . . . . . . . . . . .                     ",
"                  . . . . . . . . . . . . . . . . . . . . . . . . . . . . . . . . . . . . . . . . . . . . . .                   ",
"                . . . . . . . . . . . . . . . . . . . . . . . . . . . . . . . . . . . . . . . . . . . . . . . .                 ",
"                . . . . . . . . . . . . . . . . . . . . . . . . . . . . . . . . . . . . . . . . . . . . . . . .                 ",
"              . . . . . . . . . . . . . . . . . . . . . . . . . . . . . . . . . . . . . . . . . . . . . . . . . .               ",
"            . . . . . . . . . . . . . + . . . . . . . . . . . . . . . . . . . . . . . . . . . . . . . . . . . . . .             ",
"          . . . . . . . . . . . . . @ # $ % & * = - ; > . . . . . . . . . . . . . . . . . . . . . . . . . . . . . . .           ",
"          . . . . . . . . . . . . . , ' ' ' ' ' ' ' ) ! ~ { ] > . . . . . . . . . . . . . . . . . . . . . . . . . . .           ",
"        . . . . . . . . . . . . . . , ' ' ' ' ' ' ' ' ' ' ' ^ / ( _ : . . . . . . . . . . . . . . . . . . . . . . . . .         ",
"        . . . . . . . . . . . . . . , ' ' ' ' ' ' ' ' ' ' ' ' ' ' < [ } | . . . . . . . . . . . . . . . . . . . . . . .         ",
"      . . . . . . . . . . . . . . . , ' ' ' ' ' ' ' ' ' ' ' ' ' ' ' ' ' 1 2 3 . . . . . . . . . . . . . . . . . . . . . .       ",
"      . . . . . . . . . . . . . . . , ' ' ' ' ' 4 5 ' ' ' ' ' ' ' ' ' ' ' ' 6 7 . . . . . . . . . . . . . . . . . . . . .       ",
"      . . . . . . . . . . . . . . . , ' ' ' ' ' ' 8 9 8 ' ' ' ' ' ' ' ' ' ' ' 0 a . . . . . . . . . . . . . . . . . . . .       ",
"    . . . . . . . . . . . . . . . . , ' ' ' ' ' ' ' ' b c d ' ' ' ' ' ' ' ' ' ' ' e f . . . . . . . . . . . . . . . . . . .     ",
"    . . . . . . . . . . . . . . . . , ' ' ' ' ' ' ' ' ' g h i ' ' ' ' ' ' ' ' ' ' ' j k . . . . . . . . . . . . . . . . . .     ",
"    . . . . . . . . . . . . . . . . , ' ' ' ' ' ' ' ' ' ' d l m n ' ' ' ' ' ' ' ' ' ' o 3 . . . . . . . . . . . . . . . . .     ",
"  . . . . . . . . . . . . . . . . . , ' ' ' ' ' ' ' ' ' ' ' ' p h q ' ' ' ' ' ' ' ' ' ' r s . . . . . . . . . . . . . . . . .   ",
"  . . . . . . . . . . . . . . . . . , ' ' ' ' ' ' ' ' ' ' ' ' ' t u v ' ' ' ' ' ' ' ' ' d w . . . . . . . . . . . . . . . . .   ",
"  . . . . . . . . . . . . . . . . . , ' ' ' ' ' ' ' ' ' ' ' ' ' x y w z ' ' ' ' ' ' ' ' ' A f . . . . . . . . . . . . . . . .   ",
"  . . . . . . . . . . . . . . . . . , ' ' ' ' ' ' ' ' ' ' ' ' ' ' B C D E ' ' ' ' ' ' ' ' ' F . . . . . . . . . . . . . . . .   ",
"  . . . . . . . . . . . . . . . . . , ' ' ' ' ' ' ' ' ' ' ' ' ' ' ' G | H I ' ' ' ' ' ' ' ' J > . . . . . . . . . . . . . . .   ",
"  . . . . . . . . . . . . . . . . . , ' ' ' ' ' ' ' ' ' ' ' ' ' ' ' ' K . @ L ' ' ' ' ' ' ' ' - . . . . . . . . . . . . . . .   ",
"  . . . . . . . . . . . . . . . . . , ' ' ' ' ' ' ' ' ' ' ' ' ' ' ' ' M N s O ' ' ' ' ' ' ' ' P . . . . . . . . . . . . . . .   ",
"  . . . . . . . . . . . . . . . . . , ' ' ' ' ' ' ' ' ' ' ' ' ' ' ' ' ' Q . @ R ' ' ' ' ' ' ' S . . . . . . . . . . . . . . .   ",
"  . . . . . . . . . . . . . . . . . T ' ' ' ' ' ' ' ' ' ' ' ' ' ' ' ' ' ) - . U ' ' ' ' ' ' ' V W . . . . . . . . . . . . . .   ",
"  . . . . . . . . . . . . . . . . . ] X ' ' ' ' ' ' ' ' ' ' ' ' ' ' ' ' ' Y . @ Z ' ' ' ' ' ' ` C . . . . . . . . . . . . . .   ",
"  . . . . . . . . . . . . . . . . .  ...' ' ' ' ' ' ' ' ' ' ' ' ' ' ' ' ' +.@.. #.' ' ' ' ' ' n , . . . . . . . . . . . . . .   ",
"  . . . . . . . . . . . . . . . . . 3 $.' ' ' ' ' ' ' ' ' ' ' ' ' ' ' ' ' %.] . &.' ' ' ' ' ' *.; . . . . . . . . . . . . . .   ",
"  . . . . . . . . . . . . . . . . . . =.' ' ' ' ' ' ' ' ' ' ' ' ' ' ' ' ' ' -.. w ;.' ' ' ' ' >.@ . . . . . . . . . . . . . .   ",
"  . . . . . . . . . . . . . . . . . . 7 ' ' ' ' ' ' ' ' ' ' ' ' ' ' ' ' ' ' ,.. . '.' ' ' ' ' ).> . . . . . . . . . . . . . .   ",
"    . . . . . . . . . . . . . . . . . > ).' ' ' ' ' ' ' ' ' ' ' ' ' ' ' ' ' !.. . =.' ' ' ' ' ~.. . . . . . . . . . . . . .     ",
"    . . . . . . . . . . . . . . . . . . l ' ' ' ' ' ' ' ' ' ' ' ' ' ' ' ' ' {.. . ].' ' ' ' ' ^.. . . . . . . . . . . . . .     ",
"    . . . . . . . . . . . . . . . . . . | # ' ' ' ' ' ' ' ' ' ' ' ' ' ' ' ' /.. . (.' ' ' ' _.- . . . . . . . . . . . . . .     ",
"      . . . . . . . . . . . . . . . . . . W %.' ' ' ' ' ' ' ' ' ' ' ' ' ' ' :.. . <.' ' ' ' [.. . . . . . . . . . . . . .       ",
"      . . . . . . . . . . . . . . . . . . s K ' ' ' ' ' ' ' ' ' ' ' ' ' ' ' }.. . <.' ' ' ' <.. . . . . . . . . . . . . .       ",
"      . . . . . . . . . . . . . . . . . . . . |.' ' ' ' ' ' ' ' ' ' ' ' ' ' 1.. . (.' ' ' 2.. . . . . . . . . . . . . . .       ",
"        . . . . . . . . . . . . . . . . . . . 3 3.' ' ' ' ' ' ' ' ' ' ' ' 4.w . . ].' ' 5.7 . . . . . . . . . . . . . .         ",
"        . . . . . . . . . . . . . . . . . . . . . 6.7.' ' ' ' ' ' ' ' ' ' 8.. . . 9.' 0.a.. . . . . . . . . . . . . . .         ",
"          . . . . . . . . . . . . . . . . . . . . . 7 c b.' ' ' ' ' ' ' c.7 . . . d.e.f.s . . . . . . . . . . . . . .           ",
"          . . . . . . . . . . . . . . . . . . . . . . . H a.g.).h.i.7.j.k.. . . | l.m.s . . . . . . . . . . . . . . .           ",
"            . . . . . . . . . . . . . . . . . . . . . . . . . > n.H h W . . . . . k . . . . . . . . . . . . . . . .             ",
"              . . . . . . . . . . . . . . . . . . . . . . . . . . . . . . . . . . . . . . . . . . . . . . . . . .               ",
"                . . . . . . . . . . . . . . . . . . . . . . . . . . . . . . . . . . . . . . . . . . . . . . . .                 ",
"                . . . . . . . . . . . . . . . . . . . . . . . . . . . . . . . . . . . . . . . . . . . . . . . .                 ",
"                  . . . . . . . . . . . . . . . . . . . . . . . . . . . . . . . . . . . . . . . . . . . . . .                   ",
"                    . . . . . . . . . . . . . . . . . . . . . . . . . . . . . . . . . . . . . . . . . . . .                     ",
"                      . . . . . . . . . . . . . . . . . . . . . . . . . . . . . . . . . . . . . . . . . .                       ",
"                          . . . . . . . . . . . . . . . . . . . . . . . . . . . . . . . . . . . . . .                           ",
"                            . . . . . . . . . . . . . . . . . . . . . . . . . . . . . . . . . . . .                             ",
"                              . . . . . . . . . . . . . . . . . . . . . . . . . . . . . . . . . .                               ",
"                                  . . . . . . . . . . . . . . . . . . . . . . . . . . . . . .                                   ",
"                                      . . . . . . . . . . . . . . . . . . . . . . . . . .                                       ",
"                                            . . . . . . . . . . . . . . . . . . . .                                             ",
"                                                  . . . . . . . . . . . . . .                                                   ",
"                                                                                                                                "};
